<?xml version="1.0" encoding="utf-8"?>
<!-- Generator: Adobe Illustrator 16.0.0, SVG Export Plug-In . SVG Version: 6.00 Build 0)  -->
<!DOCTYPE svg PUBLIC "-//W3C//DTD SVG 1.1//EN" "http://www.w3.org/Graphics/SVG/1.1/DTD/svg11.dtd">
<svg version="1.1" id="Calque_1" xmlns="http://www.w3.org/2000/svg" xmlns:xlink="http://www.w3.org/1999/xlink" x="0px" y="0px"
	 width="64px" height="64px" viewBox="0 0 64 64" enable-background="new 0 0 64 64" xml:space="preserve">
<g>
	<circle fill="#FFFFFF" cx="32" cy="31.999" r="28"/>
	<path fill="#26233C" d="M42.417,6c-3.375-1.354-7.072-2.069-10.938-1.997c-5.187,0.098-10,1.623-14.118,4.159
		C9.206,13.187,3.821,22.248,4.005,32.528c0.005,0.296,0.047,0.582,0.061,0.875c0.322,6.416,2.764,12.258,6.672,16.814
		c0.281,0.33,0.594,0.631,0.891,0.945c0.315,0.335,0.616,0.684,0.946,1.003c5.16,4.972,12.219,7.975,19.951,7.831
		c5.798-0.109,11.152-1.971,15.562-5.074c7.146-5.026,11.794-13.314,11.888-22.646c0-0.268,0.027-0.527,0.024-0.794
		C59.771,19.881,52.536,10.063,42.417,6z M32.001,12.121c1.98,0,3.587,1.606,3.587,3.587c0,1.982-1.606,3.588-3.587,3.588
		c-1.982,0-3.589-1.606-3.589-3.588C28.412,13.727,30.019,12.121,32.001,12.121z M40.05,47.356h-16.1V21.921h5.074v12.601h5.951
		V21.921h5.074V47.356z"/>
</g>
</svg>
